<?xml version="1.0" encoding="UTF-8" standalone="no"?>
<svg
   xmlns:dc="http://purl.org/dc/elements/1.1/"
   xmlns:cc="http://creativecommons.org/ns#"
   xmlns:rdf="http://www.w3.org/1999/02/22-rdf-syntax-ns#"
   xmlns:svg="http://www.w3.org/2000/svg"
   xmlns="http://www.w3.org/2000/svg"
   xmlns:sodipodi="http://sodipodi.sourceforge.net/DTD/sodipodi-0.dtd"
   xmlns:inkscape="http://www.inkscape.org/namespaces/inkscape"
   enable-background="new 0 0 48 48"
   height="18.266285"
   id="Layer_4"
   version="1.1"
   viewBox="0 0 16 18.266285"
   width="16"
   xml:space="preserve"
   inkscape:version="0.48.5 r10040"
   sodipodi:docname="icon-data_small.svg"><metadata
     id="metadata15"><rdf:RDF><cc:Work
         rdf:about=""><dc:format>image/svg+xml</dc:format><dc:type
           rdf:resource="http://purl.org/dc/dcmitype/StillImage" /><dc:title></dc:title></cc:Work></rdf:RDF></metadata><defs
     id="defs13" /><sodipodi:namedview
     pagecolor="#ffffff"
     bordercolor="#666666"
     borderopacity="1"
     objecttolerance="10"
     gridtolerance="10"
     guidetolerance="10"
     inkscape:pageopacity="0"
     inkscape:pageshadow="2"
     inkscape:window-width="848"
     inkscape:window-height="644"
     id="namedview11"
     showgrid="false"
     fit-margin-top="0"
     fit-margin-left="0"
     fit-margin-right="0"
     fit-margin-bottom="0"
     inkscape:zoom="6.052834"
     inkscape:cx="-21.808602"
     inkscape:cy="-5.3595618"
     inkscape:window-x="154"
     inkscape:window-y="23"
     inkscape:window-maximized="0"
     inkscape:current-layer="g3" /><g
     id="g3"
     transform="matrix(0.38095238,0,0,0.38095238,-1.1428571,-0.00952404)"><polygon
       points="29.884,11.984 32.75,11.984 37.059,11.984 37.938,11.984 37.938,17.084 37.938,19.084 37.938,26.422 41.842,26.422 41.842,19.084 41.842,17.084 41.842,11.984 41.842,9.422 32.446,0.025 29.884,0.025 5.967,0.025 5.967,17.766 9.875,17.766 9.875,5.672 9.875,4.797 9.875,3.859 28.766,3.859 29.812,3.859 29.884,3.859 29.884,4.81 29.884,5.828 "
       id="polygon5"
       style="fill-opacity:1" /><path
       d="M 45,40.218 V 36.15 h -1.897 c -0.229,-0.888 -0.596,-1.72 -1.089,-2.464 l 1.272,-1.272 -2.309,-2.309 -1.272,1.274 C 38.966,30.888 38.14,30.522 37.256,30.293 V 28.391 H 33.16 v 1.902 c -0.903,0.234 -1.748,0.609 -2.501,1.116 l -1.221,-1.221 -2.309,2.307 1.242,1.241 c -0.475,0.728 -0.831,1.537 -1.055,2.4 h -1.901 v 4.093 h 1.901 c 0.229,0.883 0.596,1.712 1.085,2.452 l -1.272,1.272 2.309,2.307 1.272,-1.272 c 0.742,0.491 1.571,0.859 2.457,1.088 v 1.898 h 4.081 v -1.898 c 0.865,-0.224 1.676,-0.581 2.405,-1.056 l 1.323,1.322 2.309,-2.307 -1.303,-1.305 c 0.509,-0.756 0.886,-1.607 1.119,-2.514 H 45 z m -9.458,0.84 c -1.588,0 -2.875,-1.287 -2.875,-2.875 0,-1.588 1.287,-2.875 2.875,-2.875 1.588,0 2.875,1.287 2.875,2.875 0,1.588 -1.287,2.875 -2.875,2.875 z"
       id="path7"
       inkscape:connector-curvature="0"
       style="fill-opacity:1" /><path
       d="m 23.637,31.885 h 2.215 v -4.747 h -2.215 c -0.267,-1.035 -0.694,-2.007 -1.27,-2.875 l 1.485,-1.484 -2.693,-2.694 -1.484,1.486 c -0.864,-0.572 -1.828,-0.999 -2.858,-1.267 v -2.22 h -4.781 v 2.22 c -1.053,0.272 -2.039,0.711 -2.917,1.302 L 7.694,20.181 5,22.873 6.449,24.322 c -0.554,0.849 -0.97,1.793 -1.23,2.8 H 3 v 4.776 h 2.218 c 0.267,1.031 0.694,1.998 1.267,2.862 L 5,36.245 7.693,38.936 9.178,37.452 c 0.866,0.573 1.834,1.002 2.867,1.269 v 2.216 h 4.761 v -2.216 c 1.01,-0.26 1.957,-0.678 2.808,-1.231 l 1.544,1.543 2.693,-2.691 -1.521,-1.522 c 0.595,-0.884 1.035,-1.878 1.307,-2.935 z m -9.211,1.543 c -2.163,0 -3.917,-1.754 -3.917,-3.917 0,-2.163 1.754,-3.917 3.917,-3.917 2.163,0 3.917,1.754 3.917,3.917 0,2.163 -1.754,3.917 -3.917,3.917 z"
       id="path9"
       inkscape:connector-curvature="0"
       style="fill-opacity:1" /></g></svg>