<?xml version="1.0" ?><!DOCTYPE svg  PUBLIC '-//W3C//DTD SVG 1.1//EN'  'http://www.w3.org/Graphics/SVG/1.1/DTD/svg11.dtd'><svg enable-background="new 0 0 48 48" height="48px" id="Layer_4" version="1.1" viewBox="0 0 48 48" width="48px" xml:space="preserve" xmlns="http://www.w3.org/2000/svg" xmlns:xlink="http://www.w3.org/1999/xlink"><g><polygon fill="#241F20" points="9.875,5.672 9.875,4.797 9.875,3.859 28.766,3.859 29.812,3.859 29.884,3.859 29.884,4.81    29.884,5.828 29.884,11.984 32.75,11.984 37.059,11.984 37.938,11.984 37.938,17.084 37.938,19.084 37.938,26.422 41.842,26.422    41.842,19.084 41.842,17.084 41.842,11.984 41.842,9.422 32.446,0.025 29.884,0.025 5.967,0.025 5.967,17.766 9.875,17.766  "/><path d="M45,40.218v-4.068h-1.897c-0.229-0.888-0.596-1.72-1.089-2.464l1.272-1.272l-2.309-2.309l-1.272,1.274   c-0.739-0.491-1.565-0.857-2.449-1.086v-1.902H33.16v1.902c-0.903,0.234-1.748,0.609-2.501,1.116l-1.221-1.221l-2.309,2.307   l1.242,1.241c-0.475,0.728-0.831,1.537-1.055,2.4h-1.901v4.093h1.901c0.229,0.883,0.596,1.712,1.085,2.452l-1.272,1.272   l2.309,2.307l1.272-1.272c0.742,0.491,1.571,0.859,2.457,1.088v1.898h4.081v-1.898c0.865-0.224,1.676-0.581,2.405-1.056   l1.323,1.322l2.309-2.307l-1.303-1.305c0.509-0.756,0.886-1.607,1.119-2.514H45z M35.542,41.058c-1.588,0-2.875-1.287-2.875-2.875   s1.287-2.875,2.875-2.875s2.875,1.287,2.875,2.875S37.13,41.058,35.542,41.058z" fill="#241F20"/><path d="M23.637,31.885h2.215v-4.747h-2.215c-0.267-1.035-0.694-2.007-1.27-2.875l1.485-1.484l-2.693-2.694   l-1.484,1.486c-0.864-0.572-1.828-0.999-2.858-1.267v-2.22h-4.781v2.22c-1.053,0.272-2.039,0.711-2.917,1.302l-1.425-1.425   L5,22.873l1.449,1.449c-0.554,0.849-0.97,1.793-1.23,2.8H3v4.776h2.218c0.267,1.031,0.694,1.998,1.267,2.862L5,36.245l2.693,2.691   l1.485-1.484c0.866,0.573,1.834,1.002,2.867,1.269v2.216h4.761v-2.216c1.01-0.26,1.957-0.678,2.808-1.231l1.544,1.543l2.693-2.691   l-1.521-1.522C22.925,33.936,23.365,32.942,23.637,31.885z M14.426,33.428c-2.163,0-3.917-1.754-3.917-3.917   s1.754-3.917,3.917-3.917s3.917,1.754,3.917,3.917S16.589,33.428,14.426,33.428z" fill="#241F20"/></g></svg>